<?xml version="1.0" encoding="UTF-8"?>
<svg id="Layer_1" data-name="Layer 1" xmlns="http://www.w3.org/2000/svg" xmlns:xlink="http://www.w3.org/1999/xlink" viewBox="0 0 65.33 61.94">
  <defs>
    <style>
      .cls-1, .cls-2 {
        fill: none;
      }

      .cls-3 {
        fill: #fff;
      }

      .cls-2 {
        clip-path: url(#clippath);
      }
    </style>
    <clipPath id="clippath">
      <path class="cls-1" d="m14.36,24.37c-1.1,1.1.7,4.4,2.9,5.4,2.5,1.1,6.1-3.2,5.4-4.4-.8-1.6-6-3.3-8.3-1Z"/>
    </clipPath>
  </defs>
  <path class="cls-3" d="m31.26,51.77s.6,5.9,2.6,7c0,0-9.7.7-9.5-1.9l1.4-6.3,5.5,1.2Z"/>
  <path class="cls-3" d="m43.56,35.07s2.7,7.1,11.5,12.4l.7-1.6s-7.4-2.3-11.4-11.1-1,.3-.8.3Zm-15.8-25.18s-6.22,2.24-7.05,5.42c.13,8.65-5.54,6.31-4.95,8.75-2.8-5.6.5-3.3,3.1-8.1,1.9-3.5,3.3-5.5,4.9-5.3,1.3.1,2.5-1.88,4-.78Z"/>
  <path class="cls-3" d="m35.66,36.97s-3.8,3.4-3.6,5.7c.1,2.3,9.5,1.8,1.2,4.1-2.3.6-2.2,4.4-.4,5.1,1.8.7-6.9-.7-6.8-3.6.1-2.8,1.3-7.9-1.6-9.8-.2,0,7.1,2.2,11.2-1.5Z"/>
  <path class="cls-3" d="m26.07,48.16s7.3,3.51,15-.69c5.7-3.1,7.46-6.45,6.86-7.15,0,0,1.44.05,2.74,2.05,1,1.5-.6,6.1-9,9.6-7.9,3.2-15,1.2-16.4-.2-1.3-1.4.8-3.61.8-3.61Z"/>
  <path class="cls-3" d="m22.82,19.53h0c-.5,0-.86-.06-.86-.56v-2.1c0-.5.4-.9.9-.9h0c.5,0,.9.4.9.9v1.82c-.3.25-.62.58-.94.84Z"/>
  <path class="cls-3" d="m16.34,28.84s1.73,1.93.23,4.93c-1,2,0,5.8,3.7,4.7,0,0-4.3.2-2.6-4.6.6-1.8,1.37-3.73-1.33-5.03Zm20.43-18.47s7.2,2.9,4.6,18.7c-.9,8.6,3.3,7.9,4.3,7.1.9-.7,1-3.5,3.1-4.9,2-1.5,7-5.9,4.5-10.3s-5.1-3.5-6.7-6.4c-1.5-2.6-2.5-3-4.3-3-1.5,0-3.6-2.2-5.5-1.2Z"/>
  <path class="cls-3" d="m34.76,20.77h0c-.5,0-1-.4-1-1v-2.3c0-.5.4-1,1-1h0c.5,0,1,.4,1,1v2.4c0,.5-.5.9-1,.9Z"/>
  <path class="cls-3" d="m33.16,15.87s-2.2-1.2-.4-2.2c2.3-1.3,4.9.8,5.3,2,0,0-2.7-2.5-4.9-1.3-1.2.6,0,1.5,0,1.5Zm-9.9-2.3c-.3-.2-.8-.2-1.2-.1s-.7.4-1,.6c.2-.5.5-.9,1-1.1.2-.1.5-.1.7-.1.5,0,1,.2,1.4.5s.6.8.6,1.3c-.1.4-.3.8-.7.9-.1,0-.22.1-.2,0,.04-.21.2-.7.1-1-.13-.58-.52-.92-.7-1Zm-3.1,19.4s2.2,7.4,10.4,5.6c7.5-1.7,8.6-8.1,8.6-8.1.5,1.5-1.6,10.2-11.8,9.4-7.4-.6-7.2-6.9-7.2-6.9Z"/>
  <g class="cls-2">
    <path class="cls-3" d="m19.86,29.27c-.45-.24-.81-.63-1-1.1-.2-.3-.2-.8,0-1,.1-.1.2-.2.3-.2.2-.1.4-.1.5-.1.78-.09,1.62.22,2.22.75.68-.89,1.04-1.79.78-2.25-.8-1.6-6-3.3-8.3-1-.57.57-.36,1.71.27,2.83.4-.26.81-.39,1.23-.33.1,0,.3,0,.4.1.1,0,.2.1.3.2.2.3.1.7,0,1-.06.33-.23.61-.47.83.37.32.76.58,1.17.77.87.38,1.86.11,2.76-.45-.05-.02-.11-.02-.16-.05Z"/>
  </g>
  <path class="cls-3" d="m32.66,60.97c-16.5,0-30-13.5-30-30S16.16.97,32.66.97s30,13.5,30,30-13.4,30-30,30Zm0-56c-14.3,0-26,11.7-26,26s11.7,26,26,26,26-11.7,26-26S47.06,4.97,32.66,4.97Z"/>
  <g>
    <path class="cls-3" d="m24.16,10.87s9.1-3.8,15.7,2c0,0-.2-2.7-5.3-3.8-2.7-.6-8.7-.5-10.4,1.8Z"/>
    <ellipse class="cls-3" cx="23.36" cy="33.57" rx=".6" ry=".4"/>
    <ellipse class="cls-3" cx="27.26" cy="35.57" rx=".6" ry=".4"/>
    <ellipse class="cls-3" cx="30.76" cy="35.47" rx=".6" ry=".4"/>
    <ellipse class="cls-3" cx="29.06" cy="37.27" rx=".6" ry=".4"/>
    <ellipse class="cls-3" cx="24.66" cy="36.17" rx=".6" ry=".4"/>
  </g>
  <path class="cls-3" d="m21.75,36.57s-.3,2.9-4.5,1.4c0,0,2.1,2.4,4.7-.2,1.2-1.3-.2-1.2-.2-1.2Zm-6.6-10.7c-.15-.58-.5-1.1-.2-1.6.4-.5,1.2-.9,1.8-1.2,3.1-1.4,6.4-3.3,8.7-6,0,0-7,4.9-10.7,6.2-1.8.7.4,2.6.4,2.6Z"/>
</svg>