<svg xmlns="http://www.w3.org/2000/svg" xmlns:xlink="http://www.w3.org/1999/xlink" height="300px" width="300px" fill="#000000" version="1.1" x="0px" y="0px" viewBox="0 0 100 100" style="enable-background:new 0 0 100 100;" xml:space="preserve"><g><path d="M73.91,21H36.09C33.28,21,31,23.28,31,26.09V31h-4.91C23.28,31,21,33.28,21,36.09v37.82c0,2.81,2.28,5.09,5.09,5.09h37.82   c2.81,0,5.09-2.28,5.09-5.09V69h4.91c2.81,0,5.09-2.28,5.09-5.09V26.09C79,23.28,76.72,21,73.91,21z M65,73.91   c0,0.6-0.49,1.09-1.09,1.09H26.09c-0.6,0-1.09-0.49-1.09-1.09V36.09c0-0.6,0.49-1.09,1.09-1.09h37.82c0.6,0,1.09,0.49,1.09,1.09   V73.91z M75,63.91c0,0.6-0.49,1.09-1.09,1.09H69V36.09c0-2.81-2.28-5.09-5.09-5.09H35v-4.91c0-0.6,0.49-1.09,1.09-1.09h37.82   c0.6,0,1.09,0.49,1.09,1.09V63.91z"/></g></svg>
