<svg data-name="Layer 1" xmlns="http://www.w3.org/2000/svg" viewBox="0 0 175 200"><path d="M69.4 83.9c-5.7 0-10.2 5-10.2 11.1s4.6 11.1 10.2 11.1 10.2-5 10.2-11.1-4.5-11.1-10.2-11.1zm36.5 0c-5.7 0-10.2 5-10.2 11.1s4.6 11.1 10.2 11.1 10.2-5 10.2-11.1-4.5-11.1-10.2-11.1z"/><path d="M154.5 0h-134A20.55 20.55 0 000 20.6v135.2a20.55 20.55 0 0020.5 20.6h113.4l-5.3-18.5 12.8 11.9 12.1 11.2 21.5 19V20.6A20.55 20.55 0 00154.5 0zm-38.6 130.6s-3.6-4.3-6.6-8.1c13.1-3.7 18.1-11.9 18.1-11.9a57.22 57.22 0 01-11.5 5.9 65.82 65.82 0 01-14.5 4.3 70.05 70.05 0 01-25.9-.1 83.94 83.94 0 01-14.7-4.3 58.6 58.6 0 01-7.3-3.4c-.3-.2-.6-.3-.9-.5a1.38 1.38 0 01-.4-.3c-1.8-1-2.8-1.7-2.8-1.7s4.8 8 17.5 11.8c-3 3.8-6.7 8.3-6.7 8.3-22.1-.7-30.5-15.2-30.5-15.2 0-32.2 14.4-58.3 14.4-58.3 14.4-10.8 28.1-10.5 28.1-10.5l1 1.2c-18 5.2-26.3 13.1-26.3 13.1s2.2-1.2 5.9-2.9a75.1 75.1 0 0122.7-6.3 9.85 9.85 0 011.7-.2 84.61 84.61 0 0120.2-.2 81.52 81.52 0 0130.1 9.6s-7.9-7.5-24.9-12.7l1.4-1.6s13.7-.3 28.1 10.5c0 0 14.4 26.1 14.4 58.3 0 0-8.5 14.5-30.6 15.2z"/></svg>