<svg version="1.1" id="Layer_1" xmlns="http://www.w3.org/2000/svg" x="0" y="0" viewBox="0 0 76.8 84.2" xml:space="preserve"><style>.st0{fill:#ed2c79}</style><g id="Layer_15"><path class="st0" d="M73.3 57.2c-1.3-1-2.9-1.5-4.5-1.3-2.8.3-7.7.8-12.8 1.2 3.4-1.5 6.4-3 9-4.7 9.1-5.8 14.4-17.1 10.6-27.2C66.9 2 59.6 0 59.6 0c-8.5 7.2-15.5 17-21 26.5C35 11.1 21.7 8.4 21.7 8.4v48.9C17.4 52 12.6 45 13.4 40.8c0 0-5.2 4.3 6.9 17.4-.7 0-1.5.1-2.1.5C13 54.9 0 44.8.4 38.6c0 0-3.9 6.3 16.8 21-3 3.3-2.6 4.2 1.7 11.6 4.5 7.8 20.2 13 20.2 13s3.2-4.1-1.4-11.4l17.8 3.8c5.5 1.2 12.9.7 16.9-2.8 1.8-1.6 3.3-3.6 4-6.2 1.4-5.4-1-8.6-3.1-10.4zM55.4 18.3c3.2-3.7 9.2-3.2 11.7 1 1.5 2.5 3.1 5.8 4.8 10.4 2.6 6.8-1 14.5-7.2 18.4-2.4 1.5-5.3 3-8.8 4.2-13.2 4.6-19.4 1.8-19.4 1.8s2.8-9.3 8.3-19.9c2.5-4 7-6.7 12.1-6.7 3.4 0 6.6 1.2 9.1 3.2-.9-5.4-5.6-9.6-11.3-9.6-.6 0-1.2.1-1.7.1.7-.9 1.5-1.9 2.4-2.9zm14.3 50c-.4 1.6-1.3 2.8-2.4 3.8-.9.8-2.1 1.4-3.5 1.7-3.2.8-6.7.2-9.5-1.6 0 0-4.3-2.9-5.4-4.5-1.2-1.7-.5-4.3 1.5-4.8 4.5-1.2 10.7-1.5 13.9-1.7 2.5-.2 4.8 1.4 5.4 3.7.3.9.4 2.1 0 3.4z"/><path class="st0" d="M45.7 39.9c2.1 2.6 5.3 4.3 8.9 4.3 5.1 0 9.4-3.3 10.9-8-2.3-1.6-5.1-2.5-8.1-2.5-4.9 0-9.2 2.5-11.7 6.2z"/></g></svg>