<svg xmlns="http://www.w3.org/2000/svg" viewBox="0 0 24 24"><g data-name="Layer 2"><path d="M12 2.16c3.2 0 3.58 0 4.85.07a6.53 6.53 0 012.23.42 3.86 3.86 0 012.27 2.27 6.53 6.53 0 01.42 2.23c.06 1.27.07 1.65.07 4.85s0 3.58-.07 4.85a6.53 6.53 0 01-.42 2.23 3.86 3.86 0 01-2.27 2.27 6.53 6.53 0 01-2.23.42c-1.27.06-1.65.07-4.85.07s-3.58 0-4.85-.07a6.53 6.53 0 01-2.23-.42 3.86 3.86 0 01-2.27-2.27 6.53 6.53 0 01-.42-2.23c-.06-1.27-.07-1.65-.07-4.85s0-3.58.07-4.85a6.53 6.53 0 01.42-2.23 3.86 3.86 0 012.27-2.27 6.53 6.53 0 012.23-.42c1.27-.06 1.65-.07 4.85-.07M12 0C8.74 0 8.33 0 7.05.07a8.79 8.79 0 00-2.91.56A6.07 6.07 0 00.63 4.14a8.79 8.79 0 00-.56 2.91C0 8.33 0 8.74 0 12s0 3.67.07 5a8.79 8.79 0 00.56 2.91 6.07 6.07 0 003.51 3.51 8.79 8.79 0 002.91.56C8.33 24 8.74 24 12 24s3.67 0 4.95-.07a8.79 8.79 0 002.91-.56 6.07 6.07 0 003.51-3.51 8.76 8.76 0 00.56-2.86c.07-1.33.07-1.74.07-5s0-3.67-.07-4.95a8.79 8.79 0 00-.56-2.91A6.07 6.07 0 0019.86.63 8.76 8.76 0 0017 .07C15.67 0 15.26 0 12 0zm0 5.84A6.16 6.16 0 1018.16 12 6.16 6.16 0 0012 5.84zM12 16a4 4 0 114-4 4 4 0 01-4 4zm6.41-11.85a1.44 1.44 0 101.44 1.44 1.43 1.43 0 00-1.44-1.44z" fill="#4f3c42" data-name="Why Work Here"/></g></svg>