<svg xmlns="http://www.w3.org/2000/svg" viewBox="0 0 27 21.92"><g data-name="Layer 2"><path d="M8.49 21.92A15.65 15.65 0 0024.25 6.38v-.9A11.37 11.37 0 0027 2.61a11.29 11.29 0 01-3.18.87A5.59 5.59 0 0026.25.42a11.24 11.24 0 01-3.51 1.34 5.54 5.54 0 00-9.44 5.05A15.71 15.71 0 011.88 1a5.55 5.55 0 001.71 7.4 5.65 5.65 0 01-2.51-.69v.09a5.55 5.55 0 004.44 5.43 5.56 5.56 0 01-2.5.09 5.57 5.57 0 005.18 3.85 11.14 11.14 0 01-6.88 2.37A11.69 11.69 0 010 19.46a15.76 15.76 0 008.49 2.46" fill="#4f3c42" data-name="Why Work Here"/></g></svg>