<svg xmlns="http://www.w3.org/2000/svg" xmlns:xlink="http://www.w3.org/1999/xlink" viewBox="0 0 165.8 61.1"><g fill="#ad4646"><path d="M81.5 41.5c-.5 2-1.4 3-4.3 3-2.8 0-3.7-1-4.2-2.9l-5.2-21.1c-.1-.5-.3-1.3-.3-1.8 0-1.1.7-2 3.2-2 2.3 0 3 .8 3.4 2.6l3.6 17.5 4.2-16c.5-2.1 1.5-3.2 4.1-3.2s3.5 1.1 4 3.2l4.1 16 3.7-17.5c.4-1.8 1.1-2.6 3.3-2.6 2.4 0 3.1 1 3.1 2 0 .5-.2 1.2-.3 1.8l-5.3 21.1c-.5 1.9-1.3 2.9-4.1 2.9s-3.8-1-4.3-3l-4.2-16-4.5 16zm31.7-11.6c-1.1 0-2.1.3-3.5.8-.7.3-1.3.5-1.8.5-1.4 0-2.4-1.7-2.4-2.9 0-.9.5-1.5 1.6-2.1 1.8-1 4.1-1.4 6.6-1.4 3.2 0 5.5.8 6.8 2.2.9 1.1 1.4 2.6 1.4 4.7v10.2c0 1.8-1 2.5-3.1 2.5-1.9 0-2.6-.6-2.6-2-1.1 1.3-2.9 2-5.1 2-3.9 0-6.4-2.1-6.4-5.5 0-3.8 2.9-5.9 11.1-6.6v-.2c0-1.4-.5-2.2-2.6-2.2zm-2.2 8.4c0 .9.5 1.5 1.9 1.5 1.1 0 2.1-.4 2.9-1.1v-3c-3.2.5-4.8 1.2-4.8 2.6z"/><use xlink:href="#a"/><use xlink:href="#a" x="10.2"/><path d="M165.2 26.9c0 .8-.3 2.1-.7 3.7-1.6 5.5-5.4 14.2-9.5 19.3-1.4 1.8-2.4 2.5-3.6 2.5-1.6 0-3.4-1.3-3.4-2.9 0-1 .7-1.8 1.5-2.6 1-1 2.6-2.8 3-3.5l-6.2-14.7c-.3-.6-.5-1.3-.5-1.9 0-1.1.7-1.9 3-1.9s3 .8 3.7 2.5l3.6 10.2c.9-2 2.2-6 3.2-10.1.3-1.3.5-2.5 3.2-2.5 2.2-.1 2.7.8 2.7 1.9z"/></g><path d="m24 50.2-2 8s18.2.5 25.8-5.7 5.7-5.8 5.7-5.8l-8-7.6L24 50.2z" fill="#f2c57e"/><path d="M29.3 51.3s.6 5.9 2.6 7c0 0-9.7.7-9.5-1.9l1.4-6.3 5.5 1.2z" fill="#bd704b"/><path d="M22.5 36.6s1.8 2.5 2.2 6.2-4 6.9 4.1 8.4c7.2 1.3 22.9-5.5 17.8-10.6-3.2-3.2-5.4-5.8-4-12 1.5-6.2-7.1-10-7.1-10l-13 18z" fill="#f2c57e"/><path d="M41.6 34.6s2.7 7.1 11.5 12.4l.7-1.6s-7.4-2.3-11.4-11.1-1 .3-.8.3zM25.8 9.5s-5.1 2.2-2.8 18c.7 8.6-2.9 7.9-3.6 7.1-.8-.7 2.4-5.1.6-6.6s-4-.1-6.2-4.4c-2.8-5.6.5-3.3 3.1-8.1 1.9-3.5 3.3-5.5 4.9-5.3 1.3.1 2.5-1.8 4-.7z" fill="#bd704b"/><g fill="#f2c57e"><path d="M15.6 27.6s.2 3.7-.5 5.8c-1.1 3.1 1.7 7.3 5.8 2.8s-5.3-8.6-5.3-8.6z"/><path d="M36.4 10.5s-7.9-4-14.2.5-1.3 3.9-5.1 9.6-.7 18.5 11.5 18.7 12-23.2 12-23.2-1.2-5.2-4.2-5.6z"/></g><path d="M33.7 36.5s-3.8 3.4-3.6 5.7c.1 2.3 9.5 1.8 1.2 4.1-2.3.6-2.2 4.4-.4 5.1s-6.9-.7-6.8-3.6c.1-2.8 1.3-7.9-1.6-9.8-.2 0 7.1 2.2 11.2-1.5z" fill="#bd704b"/><path d="M23.9 47.6s7.5 3.6 15.2-.6c5.7-3.1 7.5-6.5 6.9-7.2 0 0 1.4.1 2.7 2.1 1 1.5-.6 6.1-9 9.6-7.9 3.2-15 1.2-16.4-.2-1.3-1.4.6-3.7.6-3.7z" fill="#ad4646"/><path d="M20.9 19.4c-.5 0-.9-.4-.9-.9v-2.1c0-.5.4-.9.9-.9s.9.4.9.9v2.1c0 .5-.4.9-.9.9z" fill="#3f2418"/><path d="M23.2 17s-6.6 4.7-9.1 5.7-2.4 3.7 1 6.5 13.5-4.6 8.1-12.2z" fill="#f2c57e"/><path d="M13.6 27.6s2.5 2.7 1 5.7c-1 2 0 5.8 3.7 4.7 0 0-4.3.2-2.6-4.6.6-1.8.6-4.5-2.1-5.8zM34.8 9.9s7.2 2.9 4.6 18.7c-.9 8.6 3.3 7.9 4.3 7.1.9-.7 1-3.5 3.1-4.9 2-1.5 7-5.9 4.5-10.3s-5.1-3.5-6.7-6.4c-1.5-2.6-2.5-3-4.3-3-1.5 0-3.6-2.2-5.5-1.2z" fill="#bd704b"/><path d="M32.8 20.3c-.5 0-1-.4-1-1V17c0-.5.4-1 1-1 .5 0 1 .4 1 1v2.4c0 .5-.5.9-1 .9z" fill="#3f2418"/><g fill="#bd704b"><path d="M31.2 15.4s-2.2-1.2-.4-2.2c2.3-1.3 4.9.8 5.3 2 0 0-2.7-2.5-4.9-1.3-1.2.6 0 1.5 0 1.5zm-9.5-1.9a.78.78 0 0 0-.4-.4c-.3-.2-.8-.2-1.2-.1s-.7.4-1 .6c.2-.5.5-.9 1-1.1.2-.1.5-.1.7-.1.5 0 1 .2 1.4.5s.6.8.6 1.3c-.1.4-.3.8-.7.9-.1 0-.2.1-.2 0s.1-.2.1-.3c.1-.2.1-.4 0-.7 0-.1-.1-.4-.3-.6zm-3.5 19s2.2 7.4 10.4 5.6c7.5-1.7 8.6-8.1 8.6-8.1.5 1.5-1.6 10.2-11.8 9.4-7.4-.6-7.2-6.9-7.2-6.9z"/><path d="M19.8 36.1s-.3 2.9-4.5 1.4c0 0 2.1 2.4 4.7-.2 1.2-1.3-.2-1.2-.2-1.2zm-6.6-10.7c-.5-.3-.5-1.1-.2-1.6.4-.5 1.2-.9 1.8-1.2 3.1-1.4 6.4-3.3 8.7-6 0 0-7 4.9-10.7 6.2-1.8.7.4 2.6.4 2.6z"/></g><path d="M12.4 23.9c-1.1 1.1.7 4.4 2.9 5.4 2.5 1.1 6.1-3.2 5.4-4.4-.8-1.6-6-3.3-8.3-1z" fill="#ad4646"/><defs><path id="b" d="M12.4 23.9c-1.1 1.1.7 4.4 2.9 5.4 2.5 1.1 6.1-3.2 5.4-4.4-.8-1.6-6-3.3-8.3-1z"/><path id="a" d="M132.2 41.9c0 1.7-1 2.5-3.2 2.5s-3.2-.8-3.2-2.5V18.3c0-1.7 1-2.5 3.2-2.5s3.2.8 3.2 2.5v23.6z"/></defs><clipPath id="c"><use xlink:href="#b"/></clipPath><path d="M16.9 27.7c-.2-.3-.2-.8 0-1 .1-.1.2-.2.3-.2.2-.1.4-.1.5-.1.9-.1 1.9.3 2.5 1 .5.5.3 1-.2 1.3-.6.3-1.4.4-2.1.1a2.17 2.17 0 0 1-1-1.1zm-2.3 0c.1-.3.2-.7 0-1-.1-.1-.2-.2-.3-.2-.1-.1-.3-.1-.4-.1-.7-.1-1.4.3-2 1-.4.5-.2 1 .2 1.3.5.3 1.1.4 1.6.1a1.44 1.44 0 0 0 .9-1.1z" clip-path="url(#c)" fill="#6a2524"/><path d="M30.7 60.5c-16.5 0-30-13.5-30-30s13.5-30 30-30 30 13.5 30 30-13.4 30-30 30zm0-56c-14.3 0-26 11.7-26 26s11.7 26 26 26 26-11.7 26-26-11.6-26-26-26z" fill="#ad4646"/><g fill="#bd704b"><path d="M22.2 10.4s9.1-3.8 15.7 2c0 0-.2-2.7-5.3-3.8-2.7-.6-8.7-.5-10.4 1.8z"/><ellipse cx="21.4" cy="33.1" rx=".6" ry=".4"/><ellipse cx="25.3" cy="35.1" rx=".6" ry=".4"/><ellipse cx="28.8" cy="35" rx=".6" ry=".4"/><ellipse cx="27.1" cy="36.8" rx=".6" ry=".4"/><ellipse cx="22.7" cy="35.7" rx=".6" ry=".4"/></g></svg>