<svg version="1.1" id="Layer_1" xmlns="http://www.w3.org/2000/svg" xmlns:xlink="http://www.w3.org/1999/xlink" x="0" y="0" viewBox="0 0 60 60" style="enable-background:new 0 0 60 60" xml:space="preserve"><style>.st1{fill:#f2c57e}.st2{fill:#bd704b}.st3{fill:#ad4646}.st4{fill:#3f2418}.st5{clip-path:url(#SVGID_2_);fill:#6a2524}</style><switch><g><circle cx="30" cy="30" r="28" style="fill:none"/><path class="st1" d="m23.2 49.7-2 8s18.2.5 25.8-5.7 5.7-5.8 5.7-5.8l-8-7.6-21.5 11.1z"/><path class="st2" d="M28.6 50.8s.6 5.9 2.6 7c0 0-9.7.7-9.5-1.9l1.4-6.3 5.5 1.2z"/><path class="st1" d="M21.8 36.1s1.8 2.5 2.2 6.2c.4 3.8-4 6.9 4.1 8.4 7.3 1.3 23-5.5 17.9-10.6-3.2-3.2-5.4-5.8-4-12 1.5-6.2-7.1-10-7.1-10l-13.1 18z"/><path class="st2" d="M40.9 34s2.7 7.1 11.5 12.4l.7-1.6s-7.4-2.3-11.4-11.1-1 .3-.8.3zM25.1 8.9s-5.1 2.2-2.8 18c.7 8.6-2.9 7.9-3.6 7.1-.8-.7 2.4-5.1.6-6.6s-4-.1-6.2-4.4c-2.8-5.6.5-3.3 3.1-8.1 1.9-3.5 3.3-5.5 4.9-5.3 1.3.2 2.5-1.7 4-.7z"/><path class="st1" d="M14.9 27.1s.2 3.7-.5 5.8c-1.1 3.1 1.7 7.3 5.8 2.8s-5.3-8.6-5.3-8.6z"/><path class="st1" d="M35.7 10s-7.9-4-14.2.5-1.3 3.9-5.1 9.6-.7 18.5 11.5 18.7 12-23.2 12-23.2-1.2-5.2-4.2-5.6z"/><path class="st2" d="M32.9 36s-3.8 3.4-3.6 5.7c.1 2.3 9.5 1.8 1.2 4.1-2.3.6-2.2 4.4-.4 5.1 1.7.7-6.9-.7-6.8-3.6s1.3-7.9-1.6-9.8c-.1 0 7.2 2.2 11.2-1.5z"/><path class="st3" d="M23.2 47.1s7.5 3.6 15.2-.6c5.7-3.1 7.5-6.5 6.9-7.2 0 0 1.4.1 2.7 2.1 1 1.5-.6 6.1-9 9.6-7.9 3.2-15 1.2-16.4-.2-1.3-1.4.6-3.7.6-3.7z"/><path class="st4" d="M20.2 18.9c-.5 0-.9-.4-.9-.9v-2.1c0-.5.4-.9.9-.9s.9.4.9.9V18c0 .5-.4.9-.9.9z"/><path class="st1" d="M22.5 16.4s-6.6 4.7-9.1 5.7-2.4 3.7 1 6.5 13.5-4.5 8.1-12.2z"/><path class="st2" d="M12.9 27s2.5 2.7 1 5.7c-1 2 0 5.8 3.7 4.7 0 0-4.3.2-2.6-4.6.6-1.7.6-4.4-2.1-5.8zM34.1 9.3s7.2 2.9 4.6 18.7c-.9 8.6 3.3 7.9 4.3 7.1.9-.7 1-3.5 3.1-4.9s7-5.9 4.5-10.3-5.1-3.5-6.7-6.4c-1.5-2.6-2.5-3-4.3-3-1.5.1-3.6-2.2-5.5-1.2z"/><path class="st4" d="M32.1 19.8c-.5 0-1-.4-1-1v-2.4c0-.5.4-1 1-1 .5 0 1 .4 1 1v2.4c-.1.6-.5 1-1 1z"/><path class="st2" d="M30.5 14.9s-2.2-1.2-.4-2.2c2.3-1.3 4.9.8 5.3 2 0 0-2.7-2.5-4.9-1.3-1.2.6 0 1.5 0 1.5zM21 13c-.1-.2-.2-.3-.4-.4-.3-.2-.8-.2-1.2-.1-.4.1-.7.4-1 .6.2-.5.5-.9 1-1.1.2-.1.5-.1.7-.1.5 0 1 .2 1.4.5.4.3.6.8.6 1.3-.1.4-.3.8-.7.9-.1 0-.2.1-.2 0s.1-.2.1-.3c.1-.2.1-.4 0-.7-.1-.2-.1-.4-.3-.6zM17.5 32s2.2 7.4 10.4 5.6c7.5-1.7 8.6-8.1 8.6-8.1.5 1.5-1.6 10.2-11.8 9.4-7.4-.6-7.2-6.9-7.2-6.9z"/><path class="st2" d="M19.1 35.5s-.3 2.9-4.5 1.4c0 0 2.1 2.4 4.7-.2 1.2-1.3-.2-1.2-.2-1.2zM12.5 24.9c-.5-.3-.5-1.1-.2-1.6.4-.5 1.2-.9 1.8-1.2 3.1-1.4 6.4-3.3 8.7-6 0 0-7 4.9-10.7 6.2-1.9.7.4 2.6.4 2.6z"/><path class="st3" d="M11.7 23.4c-1.1 1.1.7 4.4 2.9 5.4 2.5 1.1 6.1-3.2 5.4-4.4-.8-1.6-6-3.4-8.3-1z"/><defs><path id="SVGID_1_" d="M11.7 23.4c-1.1 1.1.7 4.4 2.9 5.4 2.5 1.1 6.1-3.2 5.4-4.4-.8-1.6-6-3.4-8.3-1z"/></defs><clipPath id="SVGID_2_"><use xlink:href="#SVGID_1_" style="overflow:visible"/></clipPath><path class="st5" d="M16.1 27.1c-.2-.3-.2-.8 0-1 .1-.1.2-.2.3-.2.2-.1.4-.1.5-.1.9-.1 1.9.3 2.5 1 .5.5.3 1-.2 1.3-.6.3-1.4.4-2.1.1-.3-.2-.7-.6-1-1.1zM13.9 27.2c.1-.3.2-.7 0-1-.1-.1-.2-.2-.3-.2-.1-.1-.3-.1-.4-.1-.7-.1-1.4.3-2 1-.4.5-.2 1 .2 1.3.5.3 1.1.4 1.6.1.4-.2.7-.6.9-1.1z"/><path class="st3" d="M30 60C13.5 60 0 46.6 0 30S13.5 0 30 0s30 13.5 30 30-13.4 30-30 30zm0-56C15.7 4 4 15.7 4 30s11.7 26 26 26 26-11.7 26-26S44.3 4 30 4z"/><path class="st2" d="M21.5 9.9s9.1-3.8 15.7 2c0 0-.2-2.7-5.3-3.8-2.7-.6-8.7-.5-10.4 1.8z"/><ellipse class="st2" cx="20.7" cy="32.5" rx=".6" ry=".4"/><ellipse class="st2" cx="24.6" cy="34.6" rx=".6" ry=".4"/><ellipse class="st2" cx="28.1" cy="34.5" rx=".6" ry=".4"/><ellipse class="st2" cx="26.4" cy="36.3" rx=".6" ry=".4"/><ellipse class="st2" cx="22" cy="35.2" rx=".6" ry=".4"/></g></switch></svg>